<svg class="tool-icons" width="223.65" height="293.72" version="1.1" viewBox="0 0 59.173 77.713" xmlns="http://www.w3.org/2000/svg">
	<g transform="translate(1063 -326.69)">

		<g id="nut">
			<path d="m-1051.4 326.72c1.6913-0.0611 15.116 9e-3 15.238 0.0798 0.081 0.047 1.8917 3.1019 4.0215 6.7892l3.8712 6.7051-3.8134 6.6996c-2.0976 3.6848-3.916 6.7466-4.0412 6.804-0.1253 0.0574-0.6345 0.10552-1.1317 0.10694-0.4973 1e-3 -3.9733-2e-3 -7.7245-7e-3l-6.8205-0.01-3.8707-6.6802c-2.1319-3.6725-3.879-6.7947-3.8902-6.934-0.01-0.13984 1.7042-3.2419 3.8109-6.8938l3.8303-6.6396zm-5.075 9.2896c-1.5217 4.4736-0.4444 9.5166 2.7895 13.058 0.5929 0.64957 1.2495 1.2714 1.4585 1.3817 0.2092 0.1104-0.013-0.17318-0.4925-0.63005-5.1425-4.8954-5.2928-13.527-0.3235-18.579 6.8988-7.0136 18.758-3.873 21.316 5.645 2.5961 9.65-6.216 18.458-15.83 15.824-0.7806-0.21429-1.2689-0.29751-1.085-0.18604 0.6221 0.37728 2.4737 0.78231 4.0066 0.8764 12.758 0.78306 18.893-15.009 9.0451-23.282-6.8729-5.7746-17.983-2.6404-20.886 5.892zm3.3375 2.1789c-1.2845 5.695 2.8998 11.174 8.7786 11.495 3.0124 0.16456 7.2412-1.9182 8.0415-3.9609 0.1959-0.49891 0.1928-0.4991-0.1282 7.3e-4 -1.7142 2.6624-6.3575 4.2057-9.3957 3.1228-0.4264-0.15178-0.3472-0.16991 0.328-0.0753 3.6399 0.51052 7.7516-1.9595 9.0838-5.457 2.8903-7.5879-5.4575-14.61-12.032-10.122-3.9663 2.7072-4.9555 9.0816-1.9851 12.791 0.4209 0.52569 0.4258 0.55758 0.036 0.2254-1.5688-1.3372-2.7565-4.2778-2.6308-6.515 0.4752-8.4606 12.296-11.241 16.995-3.9976 0.6669 1.0287 1.3868 3.7786 1.3478 5.1535-0.017 0.60787 0.011 0.92632 0.062 0.7077 0.7168-3.061-1.1303-7.0604-4.1616-9.0108-5.6114-3.6103-12.899-0.74294-14.339 5.6421z" stroke-width=".19541"/>
		</g>

		<g id="wrench">
			<path d="m-1033.8 326.76 8.8613 15.348-8.993 15.544-17.959 0.0162-8.845-15.32c-3.0586 6.2498-3.0516 12.981 0.02 18.327 4.6359 8.03 15.796 12.114 26.176 9.5776 3.885 11.214 11.666 30.072 21.101 33.756 3.8891 1.5186 8.8741-1.5671 9.4701-5.7075 1.4376-9.9856-10.676-26.161-18.261-35.165 7.2459-7.6501 8.9389-19.145 4.3072-27.168-3.0885-5.3494-8.9232-8.7317-15.878-9.2086zm-1.5699 34.48 5.2628-3.0386 0.7857 1.3605-1.7454 1.0077 6.1236 10.606 1.7454-1.0077 0.7853 1.3605-5.2627 3.0386-0.7856-1.3605 1.7455-1.0076-6.1237-10.606-1.7455 1.0077zm10.575 19.987 8.5121-4.9144 0.9094 1.5753-6.7398 3.8912 2.1703 3.7593 5.7911-3.3435 0.9096 1.5754-5.7911 3.3435 3.7054 6.4176-1.7725 1.0232z" stroke-linecap="round" stroke-linejoin="round" stroke-width="5.164"/>
		</g>
		
	</g>
</svg>
