<?xml version="1.0" standalone="no"?>
<!DOCTYPE svg PUBLIC "-//W3C//DTD SVG 20010904//EN"
 "http://www.w3.org/TR/2001/REC-SVG-20010904/DTD/svg10.dtd">
<svg version="1.0" xmlns="http://www.w3.org/2000/svg"
 width="700.000000pt" height="700.000000pt" viewBox="0 0 700.000000 700.000000"
 preserveAspectRatio="xMidYMid meet">
<metadata>
Created by potrace 1.14, written by Peter Selinger 2001-2017
</metadata>
<g transform="translate(0.000000,700.000000) scale(0.100000,-0.100000)"
fill="#000000" stroke="none">
<path d="M3240 6989 c-1192 -90 -2244 -773 -2822 -1831 -134 -247 -265 -593
-328 -873 -179 -793 -83 -1617 274 -2335 179 -360 373 -629 665 -921 402 -401
846 -676 1371 -849 933 -308 1950 -212 2800 262 292 163 525 341 771 587 290
291 484 559 661 913 187 377 299 760 350 1203 7 61 12 220 12 355 0 249 -9
371 -45 585 -99 590 -341 1127 -728 1615 -97 123 -399 425 -521 522 -710 564
-1577 834 -2460 767z m-205 -904 c84 -40 157 -117 203 -212 36 -75 37 -82 37
-189 0 -107 -1 -112 -38 -186 -104 -211 -368 -303 -582 -204 -101 47 -190 153
-227 270 -30 94 -22 220 19 308 49 104 144 187 268 231 39 13 73 17 155 14 91
-3 113 -7 165 -32z m1893 -627 c-3 -7 -45 -185 -93 -395 l-89 -383 -124 0
c-141 0 -185 -10 -237 -52 -63 -53 -75 -89 -75 -238 l0 -130 220 0 220 0 0
-395 0 -395 -220 0 -220 0 -2 -1187 -3 -1188 -407 -3 -408 -2 0 1190 0 1190
-215 0 -215 0 0 395 0 395 215 0 215 0 0 150 c0 175 15 263 65 380 98 234 342
487 566 589 155 70 273 89 578 90 182 1 232 -2 229 -11z m-1668 -708 l0 -270
-210 0 -210 0 0 -615 0 -615 210 0 210 0 0 -750 0 -750 -405 0 -405 0 0 1635
0 1635 405 0 405 0 0 -270z"/>
</g>
</svg>
