<svg width="32" height="32" viewBox="0 0 32 32" fill="none" xmlns="http://www.w3.org/2000/svg">
<circle cx="16" cy="16" r="16" fill="#31FFAF"/>
<path d="M14 16.1492V12.523H15.9526V11.4351C15.9526 10.5611 16.3338 9.66853 17.0962 8.75732C18.0632 7.62297 19.2534 7.03719 20.6667 7H22.5356L21.6987 10.5983H20.6946C20.1367 10.6541 19.802 10.9331 19.6904 11.4351V12.523H21.6987V16.1492H19.6904V27H15.9526V16.1492H14Z" fill="#2E2E2E"/>
<path fill-rule="evenodd" clip-rule="evenodd" d="M12.0207 4.27663C11.3402 4.6639 11 5.23559 11 5.9917C11 6.32365 11.0828 6.63716 11.2483 6.93223C11.6345 7.63301 12.223 7.9834 13.0138 7.9834C13.3448 7.9834 13.6667 7.90042 13.9793 7.73444C14.6598 7.34716 15 6.76625 15 5.9917C15 5.65975 14.9172 5.33702 14.7517 5.02351C14.3655 4.34117 13.7862 4 13.0138 4C12.6644 4 12.3333 4.09221 12.0207 4.27663ZM11.1931 9.06224V24H14.8897V17.1492H13V11.523H14.8897V9.06224H11.1931ZM14.8897 12.523H14V16.1492H14.8897V12.523Z" fill="#2E2E2E"/>
</svg>
